<svg xmlns="http://www.w3.org/2000/svg" width="16" height="16" viewBox="0 0 16 16"><path d="M6.5 0C5.60417 0 4.76042 0.171875 3.96875 0.515625C3.17708 0.848958 2.48438 1.3125 1.89062 1.90625C1.30729 2.48958 0.84375 3.17708 0.5 3.96875C0.166667 4.76042 0 5.60417 0 6.5C0 7.39583 0.166667 8.23958 0.5 9.03125C0.84375 9.82292 1.30729 10.5156 1.89062 11.1094C2.48438 11.6927 3.17708 12.1562 3.96875 12.5C4.76042 12.8333 5.60417 13 6.5 13C7.30208 13 8.0625 12.8594 8.78125 12.5781C9.51042 12.2969 10.1562 11.9167 10.7188 11.4375L14.6406 15.3594C14.6927 15.401 14.75 15.4323 14.8125 15.4531C14.875 15.4844 14.9375 15.5 15 15.5C15.0625 15.5 15.125 15.4844 15.1875 15.4531C15.25 15.4323 15.3073 15.401 15.3594 15.3594C15.4531 15.2552 15.5 15.1354 15.5 15C15.5 14.8646 15.4531 14.7448 15.3594 14.6406L11.4375 10.7188C11.9167 10.1562 12.2969 9.51562 12.5781 8.79688C12.8594 8.06771 13 7.30208 13 6.5C13 5.60417 12.8281 4.76042 12.4844 3.96875C12.151 3.17708 11.6875 2.48958 11.0938 1.90625C10.5104 1.3125 9.82292 0.848958 9.03125 0.515625C8.23958 0.171875 7.39583 0 6.5 0ZM1 6.5C1 5.73958 1.14062 5.02604 1.42188 4.35938C1.71354 3.69271 2.10938 3.10938 2.60938 2.60938C3.10938 2.10938 3.69271 1.71875 4.35938 1.4375C5.02604 1.14583 5.73958 1 6.5 1C7.26042 1 7.97396 1.14583 8.64062 1.4375C9.30729 1.71875 9.89062 2.10938 10.3906 2.60938C10.8906 3.10938 11.2812 3.69271 11.5625 4.35938C11.8542 5.02604 12 5.73958 12 6.5C12 7.26042 11.8542 7.97396 11.5625 8.64062C11.2812 9.30729 10.8906 9.89062 10.3906 10.3906C9.89062 10.8906 9.30729 11.2865 8.64062 11.5781C7.97396 11.8594 7.26042 12 6.5 12C5.73958 12 5.02604 11.8594 4.35938 11.5781C3.69271 11.2865 3.10938 10.8906 2.60938 10.3906C2.10938 9.89062 1.71354 9.30729 1.42188 8.64062C1.14062 7.97396 1 7.26042 1 6.5Z"></path></svg>
