<svg id="Layer_1" data-name="Layer 1" xmlns="http://www.w3.org/2000/svg" viewBox="0 0 512 512"><defs><style>.cls-1{fill:#ffd38d;}.cls-2{fill:#6d4135;}.cls-3{opacity:0.1;}</style></defs><title>cart-flat</title><path class="cls-1" d="M490.35,217.17l-3.2,17.49L447.68,451.83a21.38,21.38,0,0,1-21,17.49H85.33a21.38,21.38,0,0,1-21-17.49L24.85,234.66l-3.2-17.49a21.32,21.32,0,0,1,21-25.17H469.33a21.32,21.32,0,0,1,21,25.17Z"/><path class="cls-2" d="M512,213.33a21.4,21.4,0,0,1-21.33,21.33H21.33a21.33,21.33,0,1,1,0-42.67h94.29L194.77,53.44a21.35,21.35,0,0,1,37.12,21.12L164.8,192H347.2L280.11,74.55a21.35,21.35,0,0,1,37.12-21.12L396.37,192h94.29A21.4,21.4,0,0,1,512,213.33Z"/><g class="cls-3"><path d="M512,213.33a21.4,21.4,0,0,1-21.33,21.33h-3.52L447.68,451.83a21.38,21.38,0,0,1-21,17.49H256V192h91.2L280.11,74.55a21.35,21.35,0,0,1,37.12-21.12L396.37,192h94.29A21.4,21.4,0,0,1,512,213.33Z"/></g></svg>