<svg xmlns="http://www.w3.org/2000/svg" fill="none" width="16" height="16" viewBox="0 0 16 16">
  <path d="M0.5 1H2V10.5C2 10.6354 2.04688 10.7552 2.14062 10.8594C2.24479 10.9531 2.36458 11 2.5 11H15C15.1354 11 15.25 10.9531 15.3438 10.8594C15.4479 10.7552 15.5 10.6354 15.5 10.5C15.5 10.3646 15.4479 10.25 15.3438 10.1562C15.25 10.0521 15.1354 10 15 10H3V9H12.5C12.6146 9 12.7135 8.96354 12.7969 8.89062C12.8906 8.81771 12.9531 8.72917 12.9844 8.625L14.4844 2.625C14.5052 2.55208 14.5052 2.47917 14.4844 2.40625C14.474 2.32292 14.4427 2.25 14.3906 2.1875C14.349 2.125 14.2917 2.07812 14.2188 2.04688C14.1458 2.01562 14.0729 2 14 2H3V0.5C3 0.364583 2.94792 0.25 2.84375 0.15625C2.75 0.0520833 2.63542 0 2.5 0H0.5C0.364583 0 0.244792 0.0520833 0.140625 0.15625C0.046875 0.25 0 0.364583 0 0.5C0 0.635417 0.046875 0.755208 0.140625 0.859375C0.244792 0.953125 0.364583 1 0.5 1ZM13.3594 3L12.1094 8H3V3H13.3594ZM5.5 14C5.5 13.4479 5.30208 12.9792 4.90625 12.5938C4.52083 12.1979 4.05208 12 3.5 12C2.94792 12 2.47396 12.1979 2.07812 12.5938C1.69271 12.9792 1.5 13.4479 1.5 14C1.5 14.5521 1.69271 15.0208 2.07812 15.4062C2.47396 15.8021 2.94792 16 3.5 16C4.05208 16 4.52083 15.8021 4.90625 15.4062C5.30208 15.0208 5.5 14.5521 5.5 14ZM2.5 14C2.5 13.7292 2.59896 13.4948 2.79688 13.2969C2.99479 13.099 3.22917 13 3.5 13C3.77083 13 4.00521 13.099 4.20312 13.2969C4.40104 13.4948 4.5 13.7292 4.5 14C4.5 14.2708 4.40104 14.5052 4.20312 14.7031C4.00521 14.901 3.77083 15 3.5 15C3.22917 15 2.99479 14.901 2.79688 14.7031C2.59896 14.5052 2.5 14.2708 2.5 14ZM14 12C13.4479 12 12.974 12.1979 12.5781 12.5938C12.1927 12.9792 12 13.4479 12 14C12 14.5521 12.1927 15.0208 12.5781 15.4062C12.974 15.8021 13.4479 16 14 16C14.5521 16 15.0208 15.8021 15.4062 15.4062C15.8021 15.0208 16 14.5521 16 14C16 13.4479 15.8021 12.9792 15.4062 12.5938C15.0208 12.1979 14.5521 12 14 12ZM14 15C13.7292 15 13.4948 14.901 13.2969 14.7031C13.099 14.5052 13 14.2708 13 14C13 13.7292 13.099 13.4948 13.2969 13.2969C13.4948 13.099 13.7292 13 14 13C14.2708 13 14.5052 13.099 14.7031 13.2969C14.901 13.4948 15 13.7292 15 14C15 14.2708 14.901 14.5052 14.7031 14.7031C14.5052 14.901 14.2708 15 14 15Z"
  />
</svg>
