<svg xmlns="http://www.w3.org/2000/svg" xmlns:xlink="http://www.w3.org/1999/xlink"><symbol id="icon-cart" viewBox="0 0 16 16">
  <path d="M0.5 1H2V10.5C2 10.6354 2.04688 10.7552 2.14062 10.8594C2.24479 10.9531 2.36458 11 2.5 11H15C15.1354 11 15.25 10.9531 15.3438 10.8594C15.4479 10.7552 15.5 10.6354 15.5 10.5C15.5 10.3646 15.4479 10.25 15.3438 10.1562C15.25 10.0521 15.1354 10 15 10H3V9H12.5C12.6146 9 12.7135 8.96354 12.7969 8.89062C12.8906 8.81771 12.9531 8.72917 12.9844 8.625L14.4844 2.625C14.5052 2.55208 14.5052 2.47917 14.4844 2.40625C14.474 2.32292 14.4427 2.25 14.3906 2.1875C14.349 2.125 14.2917 2.07812 14.2188 2.04688C14.1458 2.01562 14.0729 2 14 2H3V0.5C3 0.364583 2.94792 0.25 2.84375 0.15625C2.75 0.0520833 2.63542 0 2.5 0H0.5C0.364583 0 0.244792 0.0520833 0.140625 0.15625C0.046875 0.25 0 0.364583 0 0.5C0 0.635417 0.046875 0.755208 0.140625 0.859375C0.244792 0.953125 0.364583 1 0.5 1ZM13.3594 3L12.1094 8H3V3H13.3594ZM5.5 14C5.5 13.4479 5.30208 12.9792 4.90625 12.5938C4.52083 12.1979 4.05208 12 3.5 12C2.94792 12 2.47396 12.1979 2.07812 12.5938C1.69271 12.9792 1.5 13.4479 1.5 14C1.5 14.5521 1.69271 15.0208 2.07812 15.4062C2.47396 15.8021 2.94792 16 3.5 16C4.05208 16 4.52083 15.8021 4.90625 15.4062C5.30208 15.0208 5.5 14.5521 5.5 14ZM2.5 14C2.5 13.7292 2.59896 13.4948 2.79688 13.2969C2.99479 13.099 3.22917 13 3.5 13C3.77083 13 4.00521 13.099 4.20312 13.2969C4.40104 13.4948 4.5 13.7292 4.5 14C4.5 14.2708 4.40104 14.5052 4.20312 14.7031C4.00521 14.901 3.77083 15 3.5 15C3.22917 15 2.99479 14.901 2.79688 14.7031C2.59896 14.5052 2.5 14.2708 2.5 14ZM14 12C13.4479 12 12.974 12.1979 12.5781 12.5938C12.1927 12.9792 12 13.4479 12 14C12 14.5521 12.1927 15.0208 12.5781 15.4062C12.974 15.8021 13.4479 16 14 16C14.5521 16 15.0208 15.8021 15.4062 15.4062C15.8021 15.0208 16 14.5521 16 14C16 13.4479 15.8021 12.9792 15.4062 12.5938C15.0208 12.1979 14.5521 12 14 12ZM14 15C13.7292 15 13.4948 14.901 13.2969 14.7031C13.099 14.5052 13 14.2708 13 14C13 13.7292 13.099 13.4948 13.2969 13.2969C13.4948 13.099 13.7292 13 14 13C14.2708 13 14.5052 13.099 14.7031 13.2969C14.901 13.4948 15 13.7292 15 14C15 14.2708 14.901 14.5052 14.7031 14.7031C14.5052 14.901 14.2708 15 14 15Z"/>
</symbol><symbol id="icon-check-mark" viewBox="0 0 78.369 78.369">
<g>
	<path d="M78.049,19.015L29.458,67.606c-0.428,0.428-1.121,0.428-1.548,0L0.32,40.015c-0.427-0.426-0.427-1.119,0-1.547l6.704-6.704
		c0.428-0.427,1.121-0.427,1.548,0l20.113,20.112l41.113-41.113c0.429-0.427,1.12-0.427,1.548,0l6.703,6.704
		C78.477,17.894,78.477,18.586,78.049,19.015z"/>
</g>
<g>
</g>
<g>
</g>
<g>
</g>
<g>
</g>
<g>
</g>
<g>
</g>
<g>
</g>
<g>
</g>
<g>
</g>
<g>
</g>
<g>
</g>
<g>
</g>
<g>
</g>
<g>
</g>
<g>
</g>
</symbol><symbol id="icon-check" viewBox="0 0 14 8.4">
  <path fill="black" d="M20.1 0L7.7 13.3 1 6.1 0 7.2l7.6 8.2.1.1L21 1.2l.1-.1z"/>
</symbol><symbol id="icon-fb" viewBox="0 0 10 19">
  <path d="M7.1 19H2v-8.8H0V5.8h1.9c-.1-2 .2-3.4 1.1-4.4C3.8.5 5 .1 6.5 0H10v4.2H7.2c-.1.2-.2.8-.2 1.6h3v4.4H7.1V19zm-4-1h2.8V9.1h2.9V6.8H5.9v-.5c0-1.4 0-2.6.7-3.1l.1-.1h2.1V1H6.5c-1.2.1-2 .4-2.6 1-.8.8-1 2.3-.8 4.2l.1.6H1.1v2.3h2V18z">
  </path>
</symbol><symbol id="icon-insta" viewBox="0 0 16.1 16">
  <path d="M11.8 1C13.6 1 15 2.4 15 4.2v7.7c0 1.7-1.4 3.1-3.1 3.1H4.2C2.4 15 1 13.6 1 11.8V4.2C1 2.4 2.4 1 4.2 1h7.6m0-1H4.2C1.9 0 0 1.9 0 4.2v7.7C0 14.1 1.9 16 4.2 16h7.7c2.3 0 4.2-1.9 4.2-4.2V4.2C16 1.9 14.1 0 11.8 0z">
  </path>
  <path d="M8 4.9c1.7 0 3.1 1.4 3.1 3.1S9.7 11.1 8 11.1 4.9 9.7 4.9 8 6.3 4.9 8 4.9m0-1C5.7 3.9 3.9 5.7 3.9 8s1.8 4.1 4.1 4.1 4.1-1.8 4.1-4.1S10.3 3.9 8 3.9z">
  </path>
  <circle cx="12.3" cy="3.7" r=".9"/>
</symbol><symbol id="icon-search-strong" viewBox="0 0 56.966 56.966">
<path d="M55.146,51.887L41.588,37.786c3.486-4.144,5.396-9.358,5.396-14.786c0-12.682-10.318-23-23-23s-23,10.318-23,23
	s10.318,23,23,23c4.761,0,9.298-1.436,13.177-4.162l13.661,14.208c0.571,0.593,1.339,0.92,2.162,0.92
	c0.779,0,1.518-0.297,2.079-0.837C56.255,54.982,56.293,53.08,55.146,51.887z M23.984,6c9.374,0,17,7.626,17,17s-7.626,17-17,17
	s-17-7.626-17-17S14.61,6,23.984,6z"/>
<g>
</g>
<g>
</g>
<g>
</g>
<g>
</g>
<g>
</g>
<g>
</g>
<g>
</g>
<g>
</g>
<g>
</g>
<g>
</g>
<g>
</g>
<g>
</g>
<g>
</g>
<g>
</g>
<g>
</g>
</symbol><symbol id="icon-search" viewBox="0 0 16 16">
  <path d="M6.5 0C5.60417 0 4.76042 0.171875 3.96875 0.515625C3.17708 0.848958 2.48438 1.3125 1.89062 1.90625C1.30729 2.48958 0.84375 3.17708 0.5 3.96875C0.166667 4.76042 0 5.60417 0 6.5C0 7.39583 0.166667 8.23958 0.5 9.03125C0.84375 9.82292 1.30729 10.5156 1.89062 11.1094C2.48438 11.6927 3.17708 12.1562 3.96875 12.5C4.76042 12.8333 5.60417 13 6.5 13C7.30208 13 8.0625 12.8594 8.78125 12.5781C9.51042 12.2969 10.1562 11.9167 10.7188 11.4375L14.6406 15.3594C14.6927 15.401 14.75 15.4323 14.8125 15.4531C14.875 15.4844 14.9375 15.5 15 15.5C15.0625 15.5 15.125 15.4844 15.1875 15.4531C15.25 15.4323 15.3073 15.401 15.3594 15.3594C15.4531 15.2552 15.5 15.1354 15.5 15C15.5 14.8646 15.4531 14.7448 15.3594 14.6406L11.4375 10.7188C11.9167 10.1562 12.2969 9.51562 12.5781 8.79688C12.8594 8.06771 13 7.30208 13 6.5C13 5.60417 12.8281 4.76042 12.4844 3.96875C12.151 3.17708 11.6875 2.48958 11.0938 1.90625C10.5104 1.3125 9.82292 0.848958 9.03125 0.515625C8.23958 0.171875 7.39583 0 6.5 0ZM1 6.5C1 5.73958 1.14062 5.02604 1.42188 4.35938C1.71354 3.69271 2.10938 3.10938 2.60938 2.60938C3.10938 2.10938 3.69271 1.71875 4.35938 1.4375C5.02604 1.14583 5.73958 1 6.5 1C7.26042 1 7.97396 1.14583 8.64062 1.4375C9.30729 1.71875 9.89062 2.10938 10.3906 2.60938C10.8906 3.10938 11.2812 3.69271 11.5625 4.35938C11.8542 5.02604 12 5.73958 12 6.5C12 7.26042 11.8542 7.97396 11.5625 8.64062C11.2812 9.30729 10.8906 9.89062 10.3906 10.3906C9.89062 10.8906 9.30729 11.2865 8.64062 11.5781C7.97396 11.8594 7.26042 12 6.5 12C5.73958 12 5.02604 11.8594 4.35938 11.5781C3.69271 11.2865 3.10938 10.8906 2.60938 10.3906C2.10938 9.89062 1.71354 9.30729 1.42188 8.64062C1.14062 7.97396 1 7.26042 1 6.5Z"/>
</symbol><symbol id="icon-star" viewBox="0 0 23 21">
<path d="M11.1125 0L13.7028 7.9463H22.0853L15.3037 12.8574L17.894 20.8037L11.1125 15.8926L4.33088 20.8037L6.92121 12.8574L0.139637 7.9463H8.52212L11.1125 0Z"/>
</symbol><symbol id="icon-vk" viewBox="0 0 22 12">
  <path d="M17.6 12c-.3 0-.9-.1-1.5-.5-.5-.3-.9-.7-1.3-1.2-.3-.3-.9-.9-1.1-.9-.2.1-.4.7-.3 1.2 0 .1 0 .6-.3.9-.3.3-.8.4-.9.4h-1.4c-.7 0-3.2-.2-5.4-2.3C2.5 7.1.2 2.2.1 2 0 1.6-.1 1.2.2.9s.8-.4 1-.4h3.1c.1 0 .4.1.7.3.3.2.4.5.5.6.7 1.5 1.5 2.8 2.6 4 .1-.4.2-1.4.1-2.3 0-.4-.1-.8-.2-1-.1-.1-.3-.2-.5-.2l-.6-.5c0-.5.5-.9.9-1.1.5-.2 1.3-.3 2.3-.3h.5c.9 0 1.2.1 1.6.1 1.2.3 1.2 1.3 1.1 2.5v1.6c0 .3 0 .8.1 1 .2-.1.6-.5 1.5-1.9.6-.9 1-1.9 1.1-2.1.1-.3.4-.7 1.2-.7h3.4c.7 0 1.2.2 1.3.7.2.5.1 1.3-1.7 3.5-.3.3-.5.6-.7.9-.5.4-.9 1-.9 1.1s.5.5.9.9c1.1.9 1.9 1.7 2.2 2.3.4.6.3 1 .2 1.3-.3.7-1.2.7-1.4.8h-2.9zm-3.9-3.7c.7 0 1.2.6 1.8 1.2.4.4.7.8 1.1 1 .5.3 1 .3 1 .3h2.9c.1 0 .3-.1.4-.1 0 0 0-.1-.1-.1-.3-.5-1-1.3-2-2.1-.9-.7-1.3-1.1-1.4-1.7 0-.6.4-1.1 1.2-2.1.2-.2.4-.5.7-.8 1.1-1.4 1.4-2 1.5-2.3h-3.9c0 .4-.5 1.5-1.1 2.4-1.4 2.1-2 2.4-2.5 2.4-.1 0-.3 0-.4-.1-.7-.4-.7-1.4-.7-2.1V2.6c.1-1.3 0-1.3-.3-1.4-.3-.1-.5-.1-1.4-.1H10c-.5 0-1 0-1.4.1l.2.2c.4.5.4 1.5.4 1.7.1 1.3 0 2.9-.7 3.3-.1 0-.2.1-.4.1-.6 0-1.3-.7-2.5-2.5C5 2.9 4.5 1.8 4.5 1.8s0-.1-.1-.1-.2-.1-.2-.1h-3c.4.9 2.5 5 4.8 7.2 2 1.9 4.3 2 4.7 2h1.4s.2 0 .2-.1v-.1c0-.2 0-2 1.2-2.3h.2z">
  </path>
</symbol><symbol id="icon-wrench" viewBox="0 0 479.79 479.79">
<g>
	<path d="M478.409,116.617c-0.368-4.271-3.181-7.94-7.2-9.403c-4.029-1.472-8.539-0.47-11.57,2.556l-62.015,62.011l-68.749-21.768
		l-21.768-68.748l62.016-62.016c3.035-3.032,4.025-7.543,2.563-11.565c-1.477-4.03-5.137-6.837-9.417-7.207
		c-37.663-3.245-74.566,10.202-101.247,36.887c-36.542,36.545-46.219,89.911-29.083,135.399c-1.873,1.578-3.721,3.25-5.544,5.053
		L19.386,373.152c-0.073,0.071-0.145,0.149-0.224,0.219c-24.345,24.346-24.345,63.959,0,88.309
		c24.349,24.344,63.672,24.048,88.013-0.298c0.105-0.098,0.201-0.196,0.297-0.305l193.632-208.621
		c1.765-1.773,3.404-3.628,4.949-5.532c45.5,17.167,98.9,7.513,135.474-29.056C468.202,191.181,481.658,154.275,478.409,116.617z
		 M75.98,435.38c-8.971,8.969-23.5,8.963-32.47,0c-8.967-8.961-8.967-23.502,0-32.466c8.97-8.963,23.499-8.963,32.47,0
		C84.947,411.878,84.947,426.419,75.98,435.38z"/>
</g>
<g>
</g>
<g>
</g>
<g>
</g>
<g>
</g>
<g>
</g>
<g>
</g>
<g>
</g>
<g>
</g>
<g>
</g>
<g>
</g>
<g>
</g>
<g>
</g>
<g>
</g>
<g>
</g>
<g>
</g>
</symbol></svg>