<svg xmlns="http://www.w3.org/2000/svg" xmlns:xlink="http://www.w3.org/1999/xlink"><symbol id="icon-arrowhead" viewBox="0 0 14 10">
<path d="M11.1215 2.34289C11.446 2.03332 11.9851 2.02145 12.3256 2.31638C12.6662 2.61131 12.6792 3.10135 12.3548 3.41093C12.3548 3.41093 7.2703 8.18812 7.25554 8.20114C6.90419 8.50644 6.34709 8.49502 6.01123 8.17564L0.942587 3.41097C0.617562 3.10189 0.62972 2.61182 0.969739 2.31638C1.30976 2.02093 1.84888 2.03198 2.17391 2.34106L6.30843 6.16157C6.49998 6.33858 6.79542 6.33861 6.98701 6.16165L11.1215 2.34289Z" fill="#fff"/>
</symbol><symbol id="icon-cart-white" viewBox="0 0 16 16">
  <path d="M0.5 1H2V10.5C2 10.6354 2.04688 10.7552 2.14062 10.8594C2.24479 10.9531 2.36458 11 2.5 11H15C15.1354 11 15.25 10.9531 15.3438 10.8594C15.4479 10.7552 15.5 10.6354 15.5 10.5C15.5 10.3646 15.4479 10.25 15.3438 10.1562C15.25 10.0521 15.1354 10 15 10H3V9H12.5C12.6146 9 12.7135 8.96354 12.7969 8.89062C12.8906 8.81771 12.9531 8.72917 12.9844 8.625L14.4844 2.625C14.5052 2.55208 14.5052 2.47917 14.4844 2.40625C14.474 2.32292 14.4427 2.25 14.3906 2.1875C14.349 2.125 14.2917 2.07812 14.2188 2.04688C14.1458 2.01562 14.0729 2 14 2H3V0.5C3 0.364583 2.94792 0.25 2.84375 0.15625C2.75 0.0520833 2.63542 0 2.5 0H0.5C0.364583 0 0.244792 0.0520833 0.140625 0.15625C0.046875 0.25 0 0.364583 0 0.5C0 0.635417 0.046875 0.755208 0.140625 0.859375C0.244792 0.953125 0.364583 1 0.5 1ZM13.3594 3L12.1094 8H3V3H13.3594ZM5.5 14C5.5 13.4479 5.30208 12.9792 4.90625 12.5938C4.52083 12.1979 4.05208 12 3.5 12C2.94792 12 2.47396 12.1979 2.07812 12.5938C1.69271 12.9792 1.5 13.4479 1.5 14C1.5 14.5521 1.69271 15.0208 2.07812 15.4062C2.47396 15.8021 2.94792 16 3.5 16C4.05208 16 4.52083 15.8021 4.90625 15.4062C5.30208 15.0208 5.5 14.5521 5.5 14ZM2.5 14C2.5 13.7292 2.59896 13.4948 2.79688 13.2969C2.99479 13.099 3.22917 13 3.5 13C3.77083 13 4.00521 13.099 4.20312 13.2969C4.40104 13.4948 4.5 13.7292 4.5 14C4.5 14.2708 4.40104 14.5052 4.20312 14.7031C4.00521 14.901 3.77083 15 3.5 15C3.22917 15 2.99479 14.901 2.79688 14.7031C2.59896 14.5052 2.5 14.2708 2.5 14ZM14 12C13.4479 12 12.974 12.1979 12.5781 12.5938C12.1927 12.9792 12 13.4479 12 14C12 14.5521 12.1927 15.0208 12.5781 15.4062C12.974 15.8021 13.4479 16 14 16C14.5521 16 15.0208 15.8021 15.4062 15.4062C15.8021 15.0208 16 14.5521 16 14C16 13.4479 15.8021 12.9792 15.4062 12.5938C15.0208 12.1979 14.5521 12 14 12ZM14 15C13.7292 15 13.4948 14.901 13.2969 14.7031C13.099 14.5052 13 14.2708 13 14C13 13.7292 13.099 13.4948 13.2969 13.2969C13.4948 13.099 13.7292 13 14 13C14.2708 13 14.5052 13.099 14.7031 13.2969C14.901 13.4948 15 13.7292 15 14C15 14.2708 14.901 14.5052 14.7031 14.7031C14.5052 14.901 14.2708 15 14 15Z" fill="#ffffff"/>
</symbol><symbol id="icon-cart" viewBox="0 0 16 16">
  <path d="M0.5 1H2V10.5C2 10.6354 2.04688 10.7552 2.14062 10.8594C2.24479 10.9531 2.36458 11 2.5 11H15C15.1354 11 15.25 10.9531 15.3438 10.8594C15.4479 10.7552 15.5 10.6354 15.5 10.5C15.5 10.3646 15.4479 10.25 15.3438 10.1562C15.25 10.0521 15.1354 10 15 10H3V9H12.5C12.6146 9 12.7135 8.96354 12.7969 8.89062C12.8906 8.81771 12.9531 8.72917 12.9844 8.625L14.4844 2.625C14.5052 2.55208 14.5052 2.47917 14.4844 2.40625C14.474 2.32292 14.4427 2.25 14.3906 2.1875C14.349 2.125 14.2917 2.07812 14.2188 2.04688C14.1458 2.01562 14.0729 2 14 2H3V0.5C3 0.364583 2.94792 0.25 2.84375 0.15625C2.75 0.0520833 2.63542 0 2.5 0H0.5C0.364583 0 0.244792 0.0520833 0.140625 0.15625C0.046875 0.25 0 0.364583 0 0.5C0 0.635417 0.046875 0.755208 0.140625 0.859375C0.244792 0.953125 0.364583 1 0.5 1ZM13.3594 3L12.1094 8H3V3H13.3594ZM5.5 14C5.5 13.4479 5.30208 12.9792 4.90625 12.5938C4.52083 12.1979 4.05208 12 3.5 12C2.94792 12 2.47396 12.1979 2.07812 12.5938C1.69271 12.9792 1.5 13.4479 1.5 14C1.5 14.5521 1.69271 15.0208 2.07812 15.4062C2.47396 15.8021 2.94792 16 3.5 16C4.05208 16 4.52083 15.8021 4.90625 15.4062C5.30208 15.0208 5.5 14.5521 5.5 14ZM2.5 14C2.5 13.7292 2.59896 13.4948 2.79688 13.2969C2.99479 13.099 3.22917 13 3.5 13C3.77083 13 4.00521 13.099 4.20312 13.2969C4.40104 13.4948 4.5 13.7292 4.5 14C4.5 14.2708 4.40104 14.5052 4.20312 14.7031C4.00521 14.901 3.77083 15 3.5 15C3.22917 15 2.99479 14.901 2.79688 14.7031C2.59896 14.5052 2.5 14.2708 2.5 14ZM14 12C13.4479 12 12.974 12.1979 12.5781 12.5938C12.1927 12.9792 12 13.4479 12 14C12 14.5521 12.1927 15.0208 12.5781 15.4062C12.974 15.8021 13.4479 16 14 16C14.5521 16 15.0208 15.8021 15.4062 15.4062C15.8021 15.0208 16 14.5521 16 14C16 13.4479 15.8021 12.9792 15.4062 12.5938C15.0208 12.1979 14.5521 12 14 12ZM14 15C13.7292 15 13.4948 14.901 13.2969 14.7031C13.099 14.5052 13 14.2708 13 14C13 13.7292 13.099 13.4948 13.2969 13.2969C13.4948 13.099 13.7292 13 14 13C14.2708 13 14.5052 13.099 14.7031 13.2969C14.901 13.4948 15 13.7292 15 14C15 14.2708 14.901 14.5052 14.7031 14.7031C14.5052 14.901 14.2708 15 14 15Z"/>
</symbol><symbol id="icon-check-mark" viewBox="0 0 78.369 78.369">
<g>
	<path d="M78.049,19.015L29.458,67.606c-0.428,0.428-1.121,0.428-1.548,0L0.32,40.015c-0.427-0.426-0.427-1.119,0-1.547l6.704-6.704
		c0.428-0.427,1.121-0.427,1.548,0l20.113,20.112l41.113-41.113c0.429-0.427,1.12-0.427,1.548,0l6.703,6.704
		C78.477,17.894,78.477,18.586,78.049,19.015z"/>
</g>
<g>
</g>
<g>
</g>
<g>
</g>
<g>
</g>
<g>
</g>
<g>
</g>
<g>
</g>
<g>
</g>
<g>
</g>
<g>
</g>
<g>
</g>
<g>
</g>
<g>
</g>
<g>
</g>
<g>
</g>
</symbol><symbol id="icon-check" viewBox="0 0 14 8.4">
  <path fill="black" d="M20.1 0L7.7 13.3 1 6.1 0 7.2l7.6 8.2.1.1L21 1.2l.1-.1z"/>
</symbol><symbol id="icon-customer" viewBox="0 0 512 512"><g><path d="m256 207c47.972 0 87-39.028 87-87s-39.028-87-87-87-87 39.028-87 87 39.028 87 87 87zm0-144c31.43 0 57 25.57 57 57s-25.57 57-57 57-57-25.57-57-57 25.57-57 57-57z"/><path d="m432 207c30.327 0 55-24.673 55-55s-24.673-55-55-55-55 24.673-55 55 24.673 55 55 55zm0-80c13.785 0 25 11.215 25 25s-11.215 25-25 25-25-11.215-25-25 11.215-25 25-25z"/><path d="m444.1 241h-23.2c-27.339 0-50.939 16.152-61.693 39.352-22.141-24.17-53.944-39.352-89.228-39.352h-27.957c-35.284 0-67.087 15.182-89.228 39.352-10.755-23.2-34.355-39.352-61.694-39.352h-23.2c-37.44 0-67.9 30.276-67.9 67.49v109.21c0 16.156 13.194 29.3 29.412 29.3h91.727c1.538 17.9 16.59 32 34.883 32h199.957c18.292 0 33.344-14.1 34.883-32h90.679c16.796 0 30.46-13.61 30.46-30.34v-108.17c-.001-37.214-30.461-67.49-67.901-67.49zm-414.1 67.49c0-20.672 17.002-37.49 37.9-37.49h23.2c20.898 0 37.9 16.818 37.9 37.49v10.271c-10.087 26.264-8 42.004-8 98.239h-91zm331 135.489c0 2.769-2.252 5.021-5.021 5.021h-199.958c-2.769 0-5.021-2.253-5.021-5.021v-81.957c0-50.19 40.832-91.022 91.021-91.022h27.957c50.19 0 91.022 40.832 91.022 91.021zm121-27.319c0 .517 5.592.34-91 .34 0-56.651 2.071-72.018-8-98.239v-10.271c0-20.672 17.002-37.49 37.9-37.49h23.2c20.898 0 37.9 16.818 37.9 37.49z"/><path d="m80 207c30.327 0 55-24.673 55-55s-24.673-55-55-55-55 24.673-55 55 24.673 55 55 55zm0-80c13.785 0 25 11.215 25 25s-11.215 25-25 25-25-11.215-25-25 11.215-25 25-25z"/></g></symbol><symbol id="icon-delete" viewBox="-40 0 427 427.00131"><path d="m232.398438 154.703125c-5.523438 0-10 4.476563-10 10v189c0 5.519531 4.476562 10 10 10 5.523437 0 10-4.480469 10-10v-189c0-5.523437-4.476563-10-10-10zm0 0"/><path d="m114.398438 154.703125c-5.523438 0-10 4.476563-10 10v189c0 5.519531 4.476562 10 10 10 5.523437 0 10-4.480469 10-10v-189c0-5.523437-4.476563-10-10-10zm0 0"/><path d="m28.398438 127.121094v246.378906c0 14.5625 5.339843 28.238281 14.667968 38.050781 9.285156 9.839844 22.207032 15.425781 35.730469 15.449219h189.203125c13.527344-.023438 26.449219-5.609375 35.730469-15.449219 9.328125-9.8125 14.667969-23.488281 14.667969-38.050781v-246.378906c18.542968-4.921875 30.558593-22.835938 28.078124-41.863282-2.484374-19.023437-18.691406-33.253906-37.878906-33.257812h-51.199218v-12.5c.058593-10.511719-4.097657-20.605469-11.539063-28.03125-7.441406-7.421875-17.550781-11.5546875-28.0625-11.46875h-88.796875c-10.511719-.0859375-20.621094 4.046875-28.0625 11.46875-7.441406 7.425781-11.597656 17.519531-11.539062 28.03125v12.5h-51.199219c-19.1875.003906-35.394531 14.234375-37.878907 33.257812-2.480468 19.027344 9.535157 36.941407 28.078126 41.863282zm239.601562 279.878906h-189.203125c-17.097656 0-30.398437-14.6875-30.398437-33.5v-245.5h250v245.5c0 18.8125-13.300782 33.5-30.398438 33.5zm-158.601562-367.5c-.066407-5.207031 1.980468-10.21875 5.675781-13.894531 3.691406-3.675781 8.714843-5.695313 13.925781-5.605469h88.796875c5.210937-.089844 10.234375 1.929688 13.925781 5.605469 3.695313 3.671875 5.742188 8.6875 5.675782 13.894531v12.5h-128zm-71.199219 32.5h270.398437c9.941406 0 18 8.058594 18 18s-8.058594 18-18 18h-270.398437c-9.941407 0-18-8.058594-18-18s8.058593-18 18-18zm0 0"/><path d="m173.398438 154.703125c-5.523438 0-10 4.476563-10 10v189c0 5.519531 4.476562 10 10 10 5.523437 0 10-4.480469 10-10v-189c0-5.523437-4.476563-10-10-10zm0 0"/></symbol><symbol id="icon-delivery" viewBox="0 0 512 512">
<g>
	<g>
		<path d="M386.689,304.403c-35.587,0-64.538,28.951-64.538,64.538s28.951,64.538,64.538,64.538
			c35.593,0,64.538-28.951,64.538-64.538S422.276,304.403,386.689,304.403z M386.689,401.21c-17.796,0-32.269-14.473-32.269-32.269
			c0-17.796,14.473-32.269,32.269-32.269c17.796,0,32.269,14.473,32.269,32.269C418.958,386.738,404.485,401.21,386.689,401.21z"/>
	</g>
</g>
<g>
	<g>
		<path d="M166.185,304.403c-35.587,0-64.538,28.951-64.538,64.538s28.951,64.538,64.538,64.538s64.538-28.951,64.538-64.538
			S201.772,304.403,166.185,304.403z M166.185,401.21c-17.796,0-32.269-14.473-32.269-32.269c0-17.796,14.473-32.269,32.269-32.269
			c17.791,0,32.269,14.473,32.269,32.269C198.454,386.738,183.981,401.21,166.185,401.21z"/>
	</g>
</g>
<g>
	<g>
		<path d="M430.15,119.675c-2.743-5.448-8.32-8.885-14.419-8.885h-84.975v32.269h75.025l43.934,87.384l28.838-14.5L430.15,119.675z"/>
	</g>
</g>
<g>
	<g>
		<rect x="216.202" y="353.345" width="122.084" height="32.269"/>
	</g>
</g>
<g>
	<g>
		<path d="M117.781,353.345H61.849c-8.912,0-16.134,7.223-16.134,16.134c0,8.912,7.223,16.134,16.134,16.134h55.933
			c8.912,0,16.134-7.223,16.134-16.134C133.916,360.567,126.693,353.345,117.781,353.345z"/>
	</g>
</g>
<g>
	<g>
		<path d="M508.612,254.709l-31.736-40.874c-3.049-3.937-7.755-6.239-12.741-6.239H346.891V94.655
			c0-8.912-7.223-16.134-16.134-16.134H61.849c-8.912,0-16.134,7.223-16.134,16.134s7.223,16.134,16.134,16.134h252.773v112.941
			c0,8.912,7.223,16.134,16.134,16.134h125.478l23.497,30.268v83.211h-44.639c-8.912,0-16.134,7.223-16.134,16.134
			c0,8.912,7.223,16.134,16.134,16.134h60.773c8.912,0,16.134-7.223,16.135-16.134V264.605
			C512,261.023,510.806,257.538,508.612,254.709z"/>
	</g>
</g>
<g>
	<g>
		<path d="M116.706,271.597H42.487c-8.912,0-16.134,7.223-16.134,16.134c0,8.912,7.223,16.134,16.134,16.134h74.218
			c8.912,0,16.134-7.223,16.134-16.134C132.84,278.82,125.617,271.597,116.706,271.597z"/>
	</g>
</g>
<g>
	<g>
		<path d="M153.815,208.134H16.134C7.223,208.134,0,215.357,0,224.269s7.223,16.134,16.134,16.134h137.681
			c8.912,0,16.134-7.223,16.134-16.134S162.727,208.134,153.815,208.134z"/>
	</g>
</g>
<g>
	<g>
		<path d="M180.168,144.672H42.487c-8.912,0-16.134,7.223-16.134,16.134c0,8.912,7.223,16.134,16.134,16.134h137.681
			c8.912,0,16.134-7.223,16.134-16.134C196.303,151.895,189.08,144.672,180.168,144.672z"/>
	</g>
</g>
<g>
</g>
<g>
</g>
<g>
</g>
<g>
</g>
<g>
</g>
<g>
</g>
<g>
</g>
<g>
</g>
<g>
</g>
<g>
</g>
<g>
</g>
<g>
</g>
<g>
</g>
<g>
</g>
<g>
</g>
</symbol><symbol id="icon-fb" viewBox="0 0 10 19">
  <path d="M7.1 19H2v-8.8H0V5.8h1.9c-.1-2 .2-3.4 1.1-4.4C3.8.5 5 .1 6.5 0H10v4.2H7.2c-.1.2-.2.8-.2 1.6h3v4.4H7.1V19zm-4-1h2.8V9.1h2.9V6.8H5.9v-.5c0-1.4 0-2.6.7-3.1l.1-.1h2.1V1H6.5c-1.2.1-2 .4-2.6 1-.8.8-1 2.3-.8 4.2l.1.6H1.1v2.3h2V18z">
  </path>
</symbol><symbol id="icon-insta" viewBox="0 0 16.1 16">
  <path d="M11.8 1C13.6 1 15 2.4 15 4.2v7.7c0 1.7-1.4 3.1-3.1 3.1H4.2C2.4 15 1 13.6 1 11.8V4.2C1 2.4 2.4 1 4.2 1h7.6m0-1H4.2C1.9 0 0 1.9 0 4.2v7.7C0 14.1 1.9 16 4.2 16h7.7c2.3 0 4.2-1.9 4.2-4.2V4.2C16 1.9 14.1 0 11.8 0z">
  </path>
  <path d="M8 4.9c1.7 0 3.1 1.4 3.1 3.1S9.7 11.1 8 11.1 4.9 9.7 4.9 8 6.3 4.9 8 4.9m0-1C5.7 3.9 3.9 5.7 3.9 8s1.8 4.1 4.1 4.1 4.1-1.8 4.1-4.1S10.3 3.9 8 3.9z">
  </path>
  <circle cx="12.3" cy="3.7" r=".9"/>
</symbol><symbol id="icon-money" viewBox="0 0 407.534 407.534">
<g>
	<g>
		<g>
			<path d="M406.962,226.838c-0.001-0.002-0.001-0.003-0.002-0.005l-76.944-193.2c-1.633-4.105-6.286-6.109-10.391-4.476
				c-0.003,0.001-0.006,0.002-0.009,0.004L7.464,153.457c-1.273,0.55-2.377,1.428-3.2,2.544C1.668,157.35,0.028,160.02,0,162.945
				v208c0,4.418,3.582,8,8,8h336c4.418,0,8-3.582,8-8v-113.6l50.496-20.112C406.6,235.596,408.599,230.942,406.962,226.838z
				 M336,362.945H16v-192h320V362.945z M133.48,154.985l133.952-53.376c11.955,12.566,28.52,19.708,45.864,19.776l13.36,33.6H133.48
				z M352,240.161v-77.216c0-4.418-3.582-8-8-8h-0.128l-16.952-42.576c-0.188-0.355-0.407-0.693-0.656-1.008
				c-0.858-3.853-4.426-6.482-8.36-6.16c-16.138,1.471-31.925-5.327-41.944-18.064c-2.493-3.077-6.875-3.842-10.264-1.792
				c-0.38,0.045-0.757,0.115-1.128,0.208l-163.536,65.12c-1.979,0.776-3.562,2.315-4.392,4.272H46.976l271.136-107.96l71.032,178.36
				L352,240.161z"/>
			<path d="M37.712,308.937c15.532,4.591,27.686,16.73,32.296,32.256c1.011,3.389,4.128,5.711,7.664,5.712
				c0.415-0.026,0.827-0.088,1.232-0.184c0.359,0.102,0.726,0.177,1.096,0.224h192c0.33-0.043,0.656-0.11,0.976-0.2
				c3.997,0.972,8.025-1.479,8.998-5.476c0.003-0.015,0.007-0.029,0.01-0.044c4.598-15.542,16.754-27.698,32.296-32.296
				c3.769-1.152,6.111-4.908,5.488-8.8c0.107-0.388,0.184-0.784,0.232-1.184v-64c-0.047-0.401-0.127-0.797-0.24-1.184
				c0.627-3.893-1.716-7.651-5.488-8.8c-15.542-4.597-27.695-16.758-32.28-32.304c-1.158-3.795-4.951-6.143-8.864-5.488
				c-0.37-0.103-0.747-0.178-1.128-0.224H80c-0.403,0.048-0.802,0.128-1.192,0.24c-3.891-0.62-7.645,1.721-8.8,5.488
				c-4.601,15.539-16.756,27.691-32.296,32.288c-3.769,1.152-6.111,4.908-5.488,8.8c-0.104,0.389-0.179,0.784-0.224,1.184v64
				c0.046,0.376,0.121,0.748,0.224,1.112C31.568,303.974,33.915,307.772,37.712,308.937z M48,238.193
				c16.064-6.452,28.796-19.184,35.248-35.248h185.496c6.455,16.064,19.19,28.796,35.256,35.248v57.504
				c-16.059,6.459-28.789,19.189-35.248,35.248H83.248C76.789,314.886,64.059,302.156,48,295.697V238.193z"/>
			<path d="M176,314.945c26.51,0,48-21.49,48-48c0-26.51-21.49-48-48-48c-26.51,0-48,21.49-48,48
				C128.026,293.444,149.501,314.919,176,314.945z M176,234.945c17.673,0,32,14.327,32,32s-14.327,32-32,32s-32-14.327-32-32
				S158.327,234.945,176,234.945z"/>
			<path d="M88,278.945c6.627,0,12-5.373,12-12c0-6.627-5.373-12-12-12s-12,5.373-12,12C76,273.573,81.373,278.945,88,278.945z
				 M88,262.945c2.209,0,4,1.791,4,4c0,2.209-1.791,4-4,4c-2.209,0-4-1.791-4-4C84,264.736,85.791,262.945,88,262.945z"/>
			<path d="M264,278.945c6.627,0,12-5.373,12-12c0-6.627-5.373-12-12-12c-6.627,0-12,5.373-12,12
				C252,273.573,257.373,278.945,264,278.945z M264,262.945c2.209,0,4,1.791,4,4c0,2.209-1.791,4-4,4c-2.209,0-4-1.791-4-4
				C260,264.736,261.791,262.945,264,262.945z"/>
		</g>
	</g>
</g>
<g>
</g>
<g>
</g>
<g>
</g>
<g>
</g>
<g>
</g>
<g>
</g>
<g>
</g>
<g>
</g>
<g>
</g>
<g>
</g>
<g>
</g>
<g>
</g>
<g>
</g>
<g>
</g>
<g>
</g>
</symbol><symbol id="icon-products" viewBox="0 0 512 512"><title>Commercial delivery </title><path d="M472.916,224H448.007a24.534,24.534,0,0,0-23.417-18H398V140.976a6.86,6.86,0,0,0-3.346-6.062L207.077,26.572a6.927,6.927,0,0,0-6.962,0L12.48,134.914A6.981,6.981,0,0,0,9,140.976V357.661a7,7,0,0,0,3.5,6.062L200.154,472.065a7,7,0,0,0,3.5.938,7.361,7.361,0,0,0,3.6-.938L306,415.108v41.174A29.642,29.642,0,0,0,335.891,486H472.916A29.807,29.807,0,0,0,503,456.282v-202.1A30.2,30.2,0,0,0,472.916,224Zm-48.077-4A10.161,10.161,0,0,1,435,230.161v.678A10.161,10.161,0,0,1,424.839,241H384.161A10.161,10.161,0,0,1,374,230.839v-.678A10.161,10.161,0,0,1,384.161,220ZM203.654,40.717l77.974,45.018L107.986,185.987,30.013,140.969ZM197,453.878,23,353.619V153.085L197,253.344Zm6.654-212.658-81.668-47.151L295.628,93.818,377.3,140.969ZM306,254.182V398.943l-95,54.935V253.344L384,153.085V206h.217A24.533,24.533,0,0,0,360.8,224H335.891A30.037,30.037,0,0,0,306,254.182Zm183,202.1A15.793,15.793,0,0,1,472.916,472H335.891A15.628,15.628,0,0,1,320,456.282v-202.1A16.022,16.022,0,0,1,335.891,238h25.182a23.944,23.944,0,0,0,23.144,17H424.59a23.942,23.942,0,0,0,23.143-17h25.183A16.186,16.186,0,0,1,489,254.182Z"/><path d="M343.949,325h7.327a7,7,0,1,0,0-14H351V292h19.307a6.739,6.739,0,0,0,6.655,4.727A7.019,7.019,0,0,0,384,289.743v-4.71A7.093,7.093,0,0,0,376.924,278H343.949A6.985,6.985,0,0,0,337,285.033v32.975A6.95,6.95,0,0,0,343.949,325Z"/><path d="M344,389h33a7,7,0,0,0,7-7V349a7,7,0,0,0-7-7H344a7,7,0,0,0-7,7v33A7,7,0,0,0,344,389Zm7-33h19v19H351Z"/><path d="M351.277,439H351V420h18.929a7.037,7.037,0,0,0,14.071.014v-6.745A7.3,7.3,0,0,0,376.924,406H343.949A7.191,7.191,0,0,0,337,413.269v32.975A6.752,6.752,0,0,0,343.949,453h7.328a7,7,0,1,0,0-14Z"/><path d="M393.041,286.592l-20.5,20.5-6.236-6.237a7,7,0,1,0-9.9,9.9l11.187,11.186a7,7,0,0,0,9.9,0l25.452-25.452a7,7,0,0,0-9.9-9.9Z"/><path d="M393.041,415.841l-20.5,20.5-6.236-6.237a7,7,0,1,0-9.9,9.9l11.187,11.186a7,7,0,0,0,9.9,0l25.452-25.452a7,7,0,0,0-9.9-9.9Z"/><path d="M464.857,295H420.891a7,7,0,0,0,0,14h43.966a7,7,0,0,0,0-14Z"/><path d="M464.857,359H420.891a7,7,0,0,0,0,14h43.966a7,7,0,0,0,0-14Z"/><path d="M464.857,423H420.891a7,7,0,0,0,0,14h43.966a7,7,0,0,0,0-14Z"/></symbol><symbol id="icon-search-strong" viewBox="0 0 56.966 56.966">
<path d="M55.146,51.887L41.588,37.786c3.486-4.144,5.396-9.358,5.396-14.786c0-12.682-10.318-23-23-23s-23,10.318-23,23
	s10.318,23,23,23c4.761,0,9.298-1.436,13.177-4.162l13.661,14.208c0.571,0.593,1.339,0.92,2.162,0.92
	c0.779,0,1.518-0.297,2.079-0.837C56.255,54.982,56.293,53.08,55.146,51.887z M23.984,6c9.374,0,17,7.626,17,17s-7.626,17-17,17
	s-17-7.626-17-17S14.61,6,23.984,6z"/>
<g>
</g>
<g>
</g>
<g>
</g>
<g>
</g>
<g>
</g>
<g>
</g>
<g>
</g>
<g>
</g>
<g>
</g>
<g>
</g>
<g>
</g>
<g>
</g>
<g>
</g>
<g>
</g>
<g>
</g>
</symbol><symbol id="icon-search" viewBox="0 0 16 16">
  <path d="M6.5 0C5.60417 0 4.76042 0.171875 3.96875 0.515625C3.17708 0.848958 2.48438 1.3125 1.89062 1.90625C1.30729 2.48958 0.84375 3.17708 0.5 3.96875C0.166667 4.76042 0 5.60417 0 6.5C0 7.39583 0.166667 8.23958 0.5 9.03125C0.84375 9.82292 1.30729 10.5156 1.89062 11.1094C2.48438 11.6927 3.17708 12.1562 3.96875 12.5C4.76042 12.8333 5.60417 13 6.5 13C7.30208 13 8.0625 12.8594 8.78125 12.5781C9.51042 12.2969 10.1562 11.9167 10.7188 11.4375L14.6406 15.3594C14.6927 15.401 14.75 15.4323 14.8125 15.4531C14.875 15.4844 14.9375 15.5 15 15.5C15.0625 15.5 15.125 15.4844 15.1875 15.4531C15.25 15.4323 15.3073 15.401 15.3594 15.3594C15.4531 15.2552 15.5 15.1354 15.5 15C15.5 14.8646 15.4531 14.7448 15.3594 14.6406L11.4375 10.7188C11.9167 10.1562 12.2969 9.51562 12.5781 8.79688C12.8594 8.06771 13 7.30208 13 6.5C13 5.60417 12.8281 4.76042 12.4844 3.96875C12.151 3.17708 11.6875 2.48958 11.0938 1.90625C10.5104 1.3125 9.82292 0.848958 9.03125 0.515625C8.23958 0.171875 7.39583 0 6.5 0ZM1 6.5C1 5.73958 1.14062 5.02604 1.42188 4.35938C1.71354 3.69271 2.10938 3.10938 2.60938 2.60938C3.10938 2.10938 3.69271 1.71875 4.35938 1.4375C5.02604 1.14583 5.73958 1 6.5 1C7.26042 1 7.97396 1.14583 8.64062 1.4375C9.30729 1.71875 9.89062 2.10938 10.3906 2.60938C10.8906 3.10938 11.2812 3.69271 11.5625 4.35938C11.8542 5.02604 12 5.73958 12 6.5C12 7.26042 11.8542 7.97396 11.5625 8.64062C11.2812 9.30729 10.8906 9.89062 10.3906 10.3906C9.89062 10.8906 9.30729 11.2865 8.64062 11.5781C7.97396 11.8594 7.26042 12 6.5 12C5.73958 12 5.02604 11.8594 4.35938 11.5781C3.69271 11.2865 3.10938 10.8906 2.60938 10.3906C2.10938 9.89062 1.71354 9.30729 1.42188 8.64062C1.14062 7.97396 1 7.26042 1 6.5Z"/>
</symbol><symbol id="icon-star" viewBox="0 0 23 21">
<path d="M11.1125 0L13.7028 7.9463H22.0853L15.3037 12.8574L17.894 20.8037L11.1125 15.8926L4.33088 20.8037L6.92121 12.8574L0.139637 7.9463H8.52212L11.1125 0Z"/>
</symbol><symbol id="icon-vk" viewBox="0 0 22 12">
  <path d="M17.6 12c-.3 0-.9-.1-1.5-.5-.5-.3-.9-.7-1.3-1.2-.3-.3-.9-.9-1.1-.9-.2.1-.4.7-.3 1.2 0 .1 0 .6-.3.9-.3.3-.8.4-.9.4h-1.4c-.7 0-3.2-.2-5.4-2.3C2.5 7.1.2 2.2.1 2 0 1.6-.1 1.2.2.9s.8-.4 1-.4h3.1c.1 0 .4.1.7.3.3.2.4.5.5.6.7 1.5 1.5 2.8 2.6 4 .1-.4.2-1.4.1-2.3 0-.4-.1-.8-.2-1-.1-.1-.3-.2-.5-.2l-.6-.5c0-.5.5-.9.9-1.1.5-.2 1.3-.3 2.3-.3h.5c.9 0 1.2.1 1.6.1 1.2.3 1.2 1.3 1.1 2.5v1.6c0 .3 0 .8.1 1 .2-.1.6-.5 1.5-1.9.6-.9 1-1.9 1.1-2.1.1-.3.4-.7 1.2-.7h3.4c.7 0 1.2.2 1.3.7.2.5.1 1.3-1.7 3.5-.3.3-.5.6-.7.9-.5.4-.9 1-.9 1.1s.5.5.9.9c1.1.9 1.9 1.7 2.2 2.3.4.6.3 1 .2 1.3-.3.7-1.2.7-1.4.8h-2.9zm-3.9-3.7c.7 0 1.2.6 1.8 1.2.4.4.7.8 1.1 1 .5.3 1 .3 1 .3h2.9c.1 0 .3-.1.4-.1 0 0 0-.1-.1-.1-.3-.5-1-1.3-2-2.1-.9-.7-1.3-1.1-1.4-1.7 0-.6.4-1.1 1.2-2.1.2-.2.4-.5.7-.8 1.1-1.4 1.4-2 1.5-2.3h-3.9c0 .4-.5 1.5-1.1 2.4-1.4 2.1-2 2.4-2.5 2.4-.1 0-.3 0-.4-.1-.7-.4-.7-1.4-.7-2.1V2.6c.1-1.3 0-1.3-.3-1.4-.3-.1-.5-.1-1.4-.1H10c-.5 0-1 0-1.4.1l.2.2c.4.5.4 1.5.4 1.7.1 1.3 0 2.9-.7 3.3-.1 0-.2.1-.4.1-.6 0-1.3-.7-2.5-2.5C5 2.9 4.5 1.8 4.5 1.8s0-.1-.1-.1-.2-.1-.2-.1h-3c.4.9 2.5 5 4.8 7.2 2 1.9 4.3 2 4.7 2h1.4s.2 0 .2-.1v-.1c0-.2 0-2 1.2-2.3h.2z">
  </path>
</symbol><symbol id="icon-wrench" viewBox="0 0 479.79 479.79">
<g>
	<path d="M478.409,116.617c-0.368-4.271-3.181-7.94-7.2-9.403c-4.029-1.472-8.539-0.47-11.57,2.556l-62.015,62.011l-68.749-21.768
		l-21.768-68.748l62.016-62.016c3.035-3.032,4.025-7.543,2.563-11.565c-1.477-4.03-5.137-6.837-9.417-7.207
		c-37.663-3.245-74.566,10.202-101.247,36.887c-36.542,36.545-46.219,89.911-29.083,135.399c-1.873,1.578-3.721,3.25-5.544,5.053
		L19.386,373.152c-0.073,0.071-0.145,0.149-0.224,0.219c-24.345,24.346-24.345,63.959,0,88.309
		c24.349,24.344,63.672,24.048,88.013-0.298c0.105-0.098,0.201-0.196,0.297-0.305l193.632-208.621
		c1.765-1.773,3.404-3.628,4.949-5.532c45.5,17.167,98.9,7.513,135.474-29.056C468.202,191.181,481.658,154.275,478.409,116.617z
		 M75.98,435.38c-8.971,8.969-23.5,8.963-32.47,0c-8.967-8.961-8.967-23.502,0-32.466c8.97-8.963,23.499-8.963,32.47,0
		C84.947,411.878,84.947,426.419,75.98,435.38z"/>
</g>
<g>
</g>
<g>
</g>
<g>
</g>
<g>
</g>
<g>
</g>
<g>
</g>
<g>
</g>
<g>
</g>
<g>
</g>
<g>
</g>
<g>
</g>
<g>
</g>
<g>
</g>
<g>
</g>
<g>
</g>
</symbol></svg>